HIERARCHY
ROOT Hips
{
  OFFSET 0 0 0
  CHANNELS 6 Xposition Yposition Zposition Zrotation Xrotation Yrotation
  JOINT Spine
  {
    OFFSET 0 8.14573 0
    CHANNELS 3 Zrotation Xrotation Yrotation
    JOINT Spine1
    {
      OFFSET 0 24.111 0
      CHANNELS 3 Zrotation Xrotation Yrotation
      JOINT Neck
      {
        OFFSET 0 24.012 2.18291
        CHANNELS 3 Zrotation Xrotation Yrotation
        JOINT Head
        {
          OFFSET 0 13.9074 -1.98676
          CHANNELS 3 Zrotation Xrotation Yrotation
          End Site
          {
            OFFSET 0 19.8676 0
          }
        }
      }
      JOINT LeftShoulder
      {
        OFFSET 3.98182 23.2766 -0.033966
        CHANNELS 3 Zrotation Xrotation Yrotation
        JOINT LeftArm
        {
          OFFSET 8.45088 0 0
          CHANNELS 3 Zrotation Xrotation Yrotation
          JOINT LeftForeArm
          {
            OFFSET 36.5975 0 0
            CHANNELS 3 Zrotation Xrotation Yrotation
            JOINT LeftHand
            {
              OFFSET 28.1209 0 0
              CHANNELS 3 Zrotation Xrotation Yrotation
              End Site
              {
                OFFSET 14.9007 0 0
              }
            }
          }
        }
      }
      JOINT RightShoulder
      {
        OFFSET -3.9644 23.2766 -0.033966
        CHANNELS 3 Zrotation Xrotation Yrotation
        JOINT RightArm
        {
          OFFSET -8.45088 0 0
          CHANNELS 3 Zrotation Xrotation Yrotation
          JOINT RightForeArm
          {
            OFFSET -36.5975 0 0
            CHANNELS 3 Zrotation Xrotation Yrotation
            JOINT RightHand
            {
              OFFSET -28.1209 0 0
              CHANNELS 3 Zrotation Xrotation Yrotation
              End Site
              {
                OFFSET -14.9007 0 0
              }
            }
          }
        }
      }
    }
  }
  JOINT LeftUpLeg
  {
    OFFSET 9.93382 0 0
    CHANNELS 3 Zrotation Xrotation Yrotation
    JOINT LeftLeg
    {
      OFFSET 0 -42.7024 0
      CHANNELS 3 Zrotation Xrotation Yrotation
      JOINT LeftFoot
      {
        OFFSET 0 -37.602 0
        CHANNELS 3 Zrotation Xrotation Yrotation
        JOINT LeftToeBase
        {
          OFFSET 0 -6.45698 14.9007
          CHANNELS 3 Zrotation Xrotation Yrotation
          End Site
          {
            OFFSET 0 0 3.97353
          }
        }
      }
    }
  }
  JOINT RightUpLeg
  {
    OFFSET -9.93382 0 0
    CHANNELS 3 Zrotation Xrotation Yrotation
    JOINT RightLeg
    {
      OFFSET 0 -42.7024 0
      CHANNELS 3 Zrotation Xrotation Yrotation
      JOINT RightFoot
      {
        OFFSET 0 -37.602 0
        CHANNELS 3 Zrotation Xrotation Yrotation
        JOINT RightToeBase
        {
          OFFSET 0 -6.45698 14.9007
          CHANNELS 3 Zrotation Xrotation Yrotation
          End Site
          {
            OFFSET 0 0 3.97353
          }
        }
      }
    }
  }
}
MOTION
Frames:	7
Frame Time:	0.0166667
39.7218 91.9989 -28.2909 -1.77794 -2.26878 27.648 3.173 5.89141 4.78779 -8.74031 -5.8887 1.19598 4.70477 20.7721 -15.4647 17.0202 1.30486 -13.7183 -3.53638 10.5954 -3.79957 -47.7128 43.5686 -6.25034 0.0254234 -16.8751 -25.7387 1.67479 -16.8133 4.03244 -14.329 -3.77028 0.237871 21.8153 -3.59968 7.61163 -21.2448 -40.5731 87.8689 0.357025 -22.9113 -7.62623 7.23455 -3.2189 0.40049 -2.33308 18.5061 -13.9205 2.9428 -12.9524 13.6627 0 1.98785e-016 -0 -0.777264 -11.8813 -3.31996 2.88305 15.5504 2.95416 1.98984 2.27168 -15.493 -1.98785e-016 -7.95139e-016 -0 
39.9717 92.0061 -28.5854 -1.85707 -2.36037 26.062 2.84743 5.84344 4.33307 -8.19619 -5.77419 1.07508 4.63015 20.7057 -14.7964 16.6572 1.40788 -13.0841 -3.63523 10.6053 -3.90015 -46.6547 43.813 -6.9717 0.0277943 -17.8755 -25.5253 2.53498 -17.7778 4.35635 -13.5486 -3.46384 0.382151 24.6675 -2.35474 6.5271 -21.1355 -41.9467 91.3593 0.959766 -23.493 -6.81655 7.07262 -2.54104 0.36153 -2.65467 17.713 -11.8422 2.98197 -12.981 13.3489 1.98785e-016 -1.98785e-016 -6.36111e-015 -0.807362 -12.2298 -4.31259 2.63625 15.915 3.81357 1.96024 2.55703 -13.8216 2.20695e-032 7.95139e-016 -1.59028e-015 
40.2091 92.0152 -28.8292 -1.99593 -2.37634 24.2362 2.51308 5.58498 4.02632 -7.56682 -5.55438 1.01185 4.2565 20.6062 -14.0944 16.4907 1.7205 -12.4333 -3.86945 10.5949 -3.79146 -45.4571 43.9648 -7.77999 -0.0838349 -18.6366 -25.1607 2.79505 -18.549 4.56007 -12.2428 -3.02588 0.729915 27.1211 -2.04395 5.37559 -19.6043 -41.8818 95.7092 0.880586 -23.4223 -6.60518 7.0172 -1.68274 0.219211 -3.18117 16.5619 -9.60908 3.00279 -13.0563 13.0764 1.98785e-016 2.98177e-016 6.36111e-015 -0.770034 -12.5128 -4.78107 2.49658 15.9414 4.22281 1.97287 2.85371 -11.9346 0 0 -1.59028e-015 
40.4411 92.0377 -29.092 -2.13446 -2.27345 22.2377 2.21797 5.2792 3.88907 -7.02591 -5.41771 0.994139 3.8467 20.3295 -13.41 16.2581 2.42208 -11.8711 -4.11606 10.5305 -3.55339 -44.1341 43.9178 -8.78312 -0.513604 -19.3585 -24.5853 2.92056 -19.3528 4.63295 -10.7661 -2.59571 1.28054 29.5905 -1.64768 3.87426 -17.5723 -41.1447 99.9559 0.477219 -23.2414 -6.01829 6.92739 -0.961786 0.228252 -3.63729 15.3962 -8.21499 3.16648 -12.8491 13.5804 9.93923e-017 0 -0 -0.68005 -13.0143 -4.80396 2.25069 16.1838 5.23985 2.53299 2.74648 -11.2046 -1.98785e-016 0 -1.59028e-015 
40.6474 92.0902 -29.3252 -2.241 -2.09151 20.1811 1.89952 4.90211 3.8362 -6.44432 -5.26163 1.00606 3.18319 20.1389 -12.6551 16.1965 2.90966 -11.1871 -4.31623 10.4294 -3.19828 -42.864 43.9047 -9.89152 -1.15036 -20.6731 -23.8978 2.07778 -20.8265 4.38795 -9.05134 -1.818 1.91539 31.8379 -1.19413 2.34804 -15.7381 -40.1231 103.336 0.773006 -23.0199 -5.23858 6.71935 -0.229802 0.330458 -3.94888 14.1525 -6.88111 3.27272 -12.5581 14.086 -1.98785e-016 0 -0 -0.570452 -13.681 -4.16161 2.06936 16.7903 6.61679 2.96904 2.28413 -11.5058 -0 -7.95139e-016 -0 
40.8341 92.1612 -29.577 -2.28939 -1.82904 18.1821 1.54076 4.50534 3.866 -5.77833 -5.0972 1.04824 2.31272 19.9034 -11.9302 16.2166 3.30991 -10.5189 -4.44784 10.1565 -2.85313 -41.8791 43.8058 -10.9576 -1.93125 -22.5832 -23.2253 0.245478 -22.9414 3.99699 -7.49242 -0.817833 2.33078 34.1112 -1.30818 1.04844 -13.1868 -37.7206 106.494 1.24718 -22.3623 -4.73551 6.35927 0.414169 0.606466 -4.02989 12.846 -5.3222 3.2415 -12.0885 14.1115 2.98177e-016 2.98177e-016 -0 -0.529285 -14.3891 -3.20075 2.07337 17.5203 7.36704 3.63632 1.77713 -12.3262 1.98785e-016 0 -1.59028e-015 
41.0161 92.2127 -29.8325 -2.27358 -1.56031 16.359 1.30374 4.2212 3.86853 -5.29 -5.04915 1.06911 1.53306 19.5608 -11.2297 16.0521 3.75512 -9.89787 -4.41329 9.96897 -2.61812 -41.2449 43.2423 -11.8045 -2.90448 -25.0119 -23.0296 -1.73269 -25.5981 3.73089 -5.97111 0.223044 2.61102 36.2474 -1.01608 -0.234911 -10.7275 -34.9909 108.481 2.78965 -21.9147 -4.30626 5.95749 1.02245 0.951724 -4.07314 11.5452 -3.94775 3.20211 -11.6436 14.0403 3.47873e-016 -9.93923e-017 -3.18055e-015 -0.62139 -15.1146 -2.30479 2.27641 18.6773 6.9393 3.9605 1.30234 -12.9722 4.96962e-016 -7.95139e-016 -0 
